<svg width="21" height="16" viewBox="0 0 21 16" fill="none" xmlns="http://www.w3.org/2000/svg">
<g id="Group 171">
<path id="Vector" d="M6.42776 15.4998V15.4997L6.41924 15.4999C6.19754 15.5036 5.98073 15.4345 5.80215 15.303C5.62358 15.1716 5.49313 14.9851 5.43086 14.7723C5.36859 14.5595 5.37795 14.3321 5.45749 14.1251C5.52158 13.9584 5.62834 13.8124 5.76612 13.701H15.5486C15.6864 13.8124 15.7931 13.9584 15.8572 14.1251C15.9368 14.3321 15.9461 14.5595 15.8839 14.7723L16.3637 14.9127L15.8839 14.7723C15.8216 14.9851 15.6911 15.1716 15.5126 15.303C15.334 15.4345 15.1172 15.5036 14.8955 15.4999L14.8955 15.4998H14.887H6.42776Z" stroke="#D9D327"/>
<path id="Vector_2" d="M18.4348 4.31124L18.4375 4.29441C18.8133 4.30919 19.1707 4.46497 19.4377 4.73195C19.7186 5.01284 19.8764 5.39382 19.8764 5.79106C19.8764 6.1883 19.7186 6.56928 19.4377 6.85017C19.1581 7.12976 18.7793 7.2874 18.3841 7.28886C18.238 7.28513 18.093 7.26384 17.952 7.22545L17.5308 7.11074L17.3603 7.51263L15.7527 11.3025H10.6843H5.61545L3.99906 7.50314L3.82392 7.09147L3.39539 7.21994C3.25061 7.26334 3.10053 7.28654 2.94941 7.28888C2.65165 7.28975 2.36028 7.20237 2.11211 7.03775C1.86329 6.87269 1.66911 6.63743 1.55423 6.36183C1.43934 6.08622 1.40893 5.78269 1.46686 5.48977C1.52478 5.19685 1.66843 4.92774 1.87957 4.71661C2.0907 4.50547 2.35981 4.36182 2.65273 4.3039C2.94565 4.24597 3.24918 4.27638 3.52479 4.39126C3.80039 4.50615 4.03566 4.70033 4.20071 4.94915C4.36577 5.19798 4.45317 5.49023 4.45184 5.78882L4.45177 5.80287L4.4525 5.81689C4.45642 5.89261 4.45642 5.96848 4.4525 6.0442L4.43274 6.42616L4.79622 6.5452L8.39587 7.72409L8.85958 7.87595L9.02272 7.41609L10.2646 3.91542L10.4067 3.51496L10.0344 3.31016C9.74314 3.14997 9.51348 2.89746 9.38154 2.59239C9.2496 2.28733 9.22288 1.94705 9.30558 1.62513C9.38828 1.30321 9.5757 1.01794 9.83834 0.814249C10.101 0.610552 10.4239 0.5 10.7563 0.5C11.0887 0.5 11.4116 0.610552 11.6742 0.814248C11.9369 1.01794 12.1243 1.30321 12.207 1.62513L12.6913 1.50072L12.207 1.62513C12.2897 1.94705 12.263 2.28733 12.131 2.59239C11.9991 2.89746 11.7694 3.14997 11.4782 3.31016L11.0995 3.51846L11.2508 3.92329L12.5557 7.41496L12.7244 7.86645L13.1818 7.71439L16.5925 6.5805L16.9347 6.46671V6.10603V5.8103C16.9368 5.41337 17.0954 5.03326 17.3761 4.75256C17.657 4.47163 18.0375 4.31302 18.4348 4.31124Z" stroke="#3DA5D9"/>
</g>
</svg>
