<svg width="20" height="16" viewBox="0 0 20 16" fill="none" xmlns="http://www.w3.org/2000/svg">
<g id="Group 172">
<path id="Vector" d="M6.05179 15.4998V15.4997L6.04326 15.4999C5.82156 15.5036 5.60475 15.4345 5.42618 15.303C5.2476 15.1716 5.11715 14.9851 5.05488 14.7723C4.99261 14.5595 5.00197 14.3321 5.08152 14.1251C5.1456 13.9584 5.25237 13.8124 5.39014 13.701H15.1726C15.3104 13.8124 15.4172 13.9584 15.4813 14.1251C15.5608 14.3321 15.5702 14.5595 15.5079 14.7723L15.9878 14.9127L15.5079 14.7723C15.4456 14.9851 15.3152 15.1716 15.1366 15.303C14.958 15.4345 14.7412 15.5036 14.5195 15.4999L14.5195 15.4998H14.511H6.05179Z" stroke="#E8F1F5"/>
<path id="Vector_2" d="M18.0586 4.31124L18.0613 4.29441C18.4371 4.30919 18.7945 4.46497 19.0614 4.73195C19.3423 5.01284 19.5001 5.39382 19.5001 5.79106C19.5001 6.1883 19.3423 6.56928 19.0614 6.85017C18.7819 7.12976 18.4031 7.2874 18.0079 7.28886C17.8618 7.28513 17.7167 7.26384 17.5758 7.22545L17.1546 7.11074L16.9841 7.51263L15.3765 11.3025H10.3081H5.23923L3.62284 7.50314L3.4477 7.09147L3.01917 7.21994C2.87439 7.26334 2.72431 7.28654 2.57319 7.28888C2.27542 7.28975 1.98406 7.20237 1.73589 7.03775C1.48707 6.87269 1.29289 6.63743 1.17801 6.36183C1.06312 6.08622 1.03271 5.78269 1.09064 5.48977C1.14856 5.19685 1.29221 4.92774 1.50335 4.71661C1.71448 4.50547 1.98359 4.36182 2.27651 4.3039C2.56943 4.24597 2.87296 4.27638 3.14857 4.39126C3.42417 4.50615 3.65944 4.70033 3.82449 4.94915C3.98955 5.19798 4.07695 5.49023 4.07562 5.78882L4.07555 5.80287L4.07628 5.81689C4.0802 5.89261 4.0802 5.96848 4.07628 6.0442L4.05652 6.42616L4.41999 6.5452L8.01965 7.72409L8.48336 7.87595L8.64649 7.41609L9.88838 3.91542L10.0304 3.51496L9.65814 3.31016C9.36692 3.14997 9.13726 2.89746 9.00532 2.59239C8.87338 2.28733 8.84665 1.94705 8.92935 1.62513C9.01205 1.30321 9.19948 1.01794 9.46212 0.814249C9.72476 0.610552 10.0477 0.5 10.3801 0.5C10.7124 0.5 11.0354 0.610552 11.298 0.814248C11.5606 1.01794 11.7481 1.30321 11.8308 1.62513L12.315 1.50072L11.8308 1.62513C11.9135 1.94705 11.8867 2.28733 11.7548 2.59239C11.6229 2.89746 11.3932 3.14997 11.102 3.31016L10.7233 3.51846L10.8746 3.92329L12.1795 7.41496L12.3482 7.86645L12.8056 7.71439L16.2163 6.5805L16.5585 6.46671V6.10603V5.8103C16.5606 5.41337 16.7191 5.03326 16.9998 4.75256C17.2808 4.47163 17.6613 4.31302 18.0586 4.31124Z" stroke="#E8F1F5"/>
</g>
</svg>
