<svg width="20" height="16" viewBox="0 0 20 16" fill="none" xmlns="http://www.w3.org/2000/svg">
<g id="Group 170">
<g id="Vector">
<path d="M15.2677 13.201H5.17061C4.88856 13.3749 4.6714 13.6365 4.55255 13.9458C4.43369 14.255 4.4197 14.5947 4.51275 14.9127C4.60579 15.2307 4.8007 15.5093 5.06751 15.7057C5.33433 15.9021 5.65827 16.0054 5.98953 15.9998H14.4487C14.78 16.0054 15.1039 15.9021 15.3707 15.7057C15.6376 15.5093 15.8325 15.2307 15.9255 14.9127C16.0186 14.5947 16.0046 14.255 15.8857 13.9458C15.7669 13.6365 15.5497 13.3749 15.2677 13.201Z" fill="#D9D327"/>
</g>
<path id="Vector_2" d="M17.9943 3.81125C17.4652 3.81362 16.9584 4.02486 16.5843 4.39901C16.2101 4.77316 15.9989 5.27994 15.9965 5.80906V6.10603L12.5858 7.23992L11.281 3.74825C11.6694 3.53458 11.9757 3.19778 12.1517 2.79088C12.3277 2.38398 12.3633 1.93011 12.253 1.50072C12.1427 1.07134 11.8927 0.690845 11.5424 0.419151C11.1921 0.147457 10.7614 0 10.318 0C9.87472 0 9.44399 0.147457 9.09368 0.419151C8.74337 0.690845 8.49337 1.07134 8.38307 1.50072C8.27276 1.93011 8.30841 2.38398 8.48439 2.79088C8.66038 3.19778 8.96671 3.53458 9.35514 3.74825L8.11326 7.24892L4.5136 6.07003C4.51841 5.9771 4.51841 5.88399 4.5136 5.79106C4.51538 5.39339 4.39897 5.00416 4.17914 4.67276C3.95932 4.34137 3.64599 4.08276 3.27893 3.92975C2.91187 3.77675 2.50762 3.73625 2.1175 3.8134C1.72738 3.89054 1.36898 4.08185 1.08778 4.36305C0.806584 4.64425 0.615271 5.00265 0.538125 5.39277C0.460978 5.78289 0.501478 6.18714 0.654483 6.5542C0.807488 6.92126 1.0661 7.23459 1.39749 7.45441C1.72889 7.67424 2.11812 7.79065 2.51579 7.78887C2.714 7.78609 2.91086 7.7558 3.10073 7.69888L4.84657 11.8025H10.2461H15.6455L17.3824 7.70788C17.5644 7.75744 17.7517 7.78464 17.9403 7.78887C18.4702 7.78887 18.9783 7.57839 19.353 7.20373C19.7276 6.82906 19.9381 6.32091 19.9381 5.79106C19.9381 5.26121 19.7276 4.75306 19.353 4.3784C18.9783 4.00373 18.4702 3.79325 17.9403 3.79325L17.9943 3.81125Z" fill="#3DA5D9"/>
</g>
</svg>
