<svg xmlns="http://www.w3.org/2000/svg" xmlns:xlink="http://www.w3.org/1999/xlink" width="64" height="64" viewBox="0 0 64 64" id="game-controller"><defs><path id="a" d="M.06 64V.04H64V64z"></path></defs><g fill="none" fill-rule="evenodd"><mask id="b" fill="#fff"><use xlink:href="#a"></use></mask><path fill="#73BBA3" d="M64 32c0 17.673-14.327 32-32 32C14.327 64 0 49.673 0 32 0 14.327 14.327 0 32 0c17.673 0 32 14.327 32 32" mask="url(#b)"></path><path fill="#629986" d="M49.961 48c-1.74 0-3.594-.889-4.961-2.098-3.45-3.051-3.8-6.103-13-6.103s-9.55 3.052-13 6.103C17.633 47.111 15.779 48 14.039 48 11.387 48 9 45.937 9 39.799c0-10.165 4.6-16.272 4.6-16.272s2.274-3.891 5.782-3.891c1.371 0 2.932.595 4.618 2.249 2.137 2.096 5.069 3.144 8 3.144 2.932 0 5.863-1.048 8-3.144 1.686-1.654 3.246-2.249 4.618-2.249 3.508 0 5.782 3.891 5.782 3.891S55 29.634 55 39.799C55 45.937 52.613 48 49.961 48"></path><path fill="#4C5665" d="M32 36.799c9.2 0 9.55 3.052 13 6.103 3.45 3.051 10 4.063 10-6.103 0-10.165-4.6-16.272-4.6-16.272S46 13 40 18.885c-4.274 4.192-11.726 4.192-16 0-6-5.885-10.4 1.642-10.4 1.642S9 26.634 9 36.799c0 10.166 6.55 9.154 10 6.103s3.8-6.103 13-6.103"></path><path fill="#DEDECA" d="M46 34a2 2 0 11-3.999.001A2 2 0 0146 34M50 29a2 2 0 11-3.999.001A2 2 0 0150 29M19 35.495c0 .831-.672 1.505-1.5 1.505s-1.5-.674-1.5-1.505v-6.99c0-.831.672-1.505 1.5-1.505s1.5.674 1.5 1.505v6.99"></path><path fill="#DEDECA" d="M14.005 33.5A1.503 1.503 0 0 1 12.5 32c0-.828.674-1.5 1.505-1.5h6.99c.831 0 1.505.672 1.505 1.5s-.674 1.5-1.505 1.5h-6.99"></path></g></svg>