<svg width="22" height="22" viewBox="0 0 22 22" fill="none" xmlns="http://www.w3.org/2000/svg">
<g id="icon">
<path id="Icon" fill-rule="evenodd" clip-rule="evenodd" d="M2.97925 9.19398C2.97925 6.71853 5.15096 4.8125 7.70008 4.8125C9.0141 4.8125 10.1704 5.42863 11.0001 6.22585C11.8298 5.42863 12.9861 4.8125 14.3001 4.8125C16.8492 4.8125 19.0209 6.71853 19.0209 9.19398C19.0209 10.8897 18.2978 12.3809 17.2959 13.6414C16.2958 14.8997 14.9875 15.9677 13.7349 16.8355C13.2565 17.1669 12.7725 17.4727 12.3295 17.6983C11.9135 17.9101 11.4353 18.1042 11.0001 18.1042C10.5649 18.1042 10.0866 17.9101 9.67067 17.6983C9.22769 17.4727 8.74367 17.1669 8.26524 16.8355C7.01263 15.9677 5.70438 14.8997 4.70425 13.6414C3.70239 12.3809 2.97925 10.8897 2.97925 9.19398ZM7.70008 6.1875C5.7941 6.1875 4.35425 7.58917 4.35425 9.19398C4.35425 10.4805 4.90039 11.6783 5.78067 12.7859C6.66267 13.8956 7.84943 14.8747 9.04826 15.7052C9.5019 16.0195 9.92918 16.2869 10.2947 16.473C10.6872 16.6729 10.9145 16.7292 11.0001 16.7292C11.0856 16.7292 11.313 16.6729 11.7055 16.473C12.071 16.2869 12.4983 16.0195 12.9519 15.7052C14.1507 14.8747 15.3375 13.8956 16.2195 12.7859C17.0998 11.6783 17.6459 10.4805 17.6459 9.19398C17.6459 7.58917 16.2061 6.1875 14.3001 6.1875C13.2054 6.1875 12.1833 6.84147 11.5451 7.67151C11.415 7.84076 11.2136 7.93995 11.0001 7.93995C10.7866 7.93995 10.5852 7.84076 10.4551 7.67151C9.81685 6.84147 8.79472 6.1875 7.70008 6.1875Z" fill="#E8F1F5"/>
</g>
</svg>
