<svg width="25" height="24" viewBox="0 0 25 24" fill="none" xmlns="http://www.w3.org/2000/svg">
<g id="Nintendo" clip-path="url(#clip0_284_4198)">
<path id="Vector" d="M0.5 12C0.5 5.3725 5.8725 0 12.5 0C19.1275 0 24.5 5.3725 24.5 12C24.5 18.6275 19.1275 24 12.5 24C5.8725 24 0.5 18.6275 0.5 12Z" fill="#E8442E"/>
<path id="Vector_2" fill-rule="evenodd" clip-rule="evenodd" d="M6.61249 8.36549C6.92399 7.16999 7.91249 6.26049 9.14149 6.04049C9.30249 6.01249 9.66749 6.00549 10.8835 6.00249C12.3805 5.99999 12.424 6.00249 12.4495 6.04849C12.4675 6.08449 12.475 8.03599 12.475 12.1795C12.475 17.7685 12.4725 18.2615 12.434 18.3C12.396 18.3385 12.2475 18.341 10.817 18.3305C9.43499 18.323 9.22049 18.3155 9.05199 18.277C7.75949 17.9755 6.84999 17.0635 6.56649 15.784C6.51549 15.5465 6.51299 15.4745 6.50499 12.399C6.49249 9.04999 6.49999 8.79699 6.61249 8.36549ZM11.4535 17.347V6.99599L10.4645 6.99899C9.37149 7.00149 9.21549 7.01649 8.87849 7.15199C8.54517 7.28695 8.25014 7.50177 8.01935 7.77755C7.78856 8.05333 7.6291 8.3816 7.55499 8.73349C7.50149 8.98649 7.50149 15.342 7.55749 15.6C7.72849 16.425 8.33899 17.0585 9.16199 17.2705C9.35349 17.319 9.45549 17.3245 10.4135 17.3345L11.4535 17.347Z" fill="white"/>
<path id="Vector_3" d="M9.36101 8.55696C9.20001 8.58746 8.95501 8.71046 8.82451 8.82546C8.55651 9.05796 8.42351 9.38746 8.44401 9.77546C8.45401 9.97746 8.46701 10.031 8.54901 10.1945C8.66901 10.4425 8.85001 10.6235 9.09801 10.7465C9.26901 10.8305 9.31301 10.841 9.53501 10.8485C9.73651 10.856 9.80801 10.8485 9.94351 10.8025C10.498 10.616 10.8325 10.077 10.738 9.52496C10.628 8.86846 10.005 8.42946 9.36101 8.55696Z" fill="white"/>
<path id="Vector_4" fill-rule="evenodd" clip-rule="evenodd" d="M13.701 12.1715C13.701 8.7945 13.709 6.0255 13.719 6.018C13.727 6.008 14.2375 6 14.851 6C15.7395 6 16.016 6.0075 16.1945 6.0385C17.528 6.2685 18.542 7.272 18.795 8.6035C18.8305 8.7895 18.836 9.2265 18.836 12.1565C18.836 15.2865 18.8395 15.655 18.741 15.993C18.724 16.0515 18.7035 16.109 18.68 16.18C18.6365 16.305 18.5525 16.507 18.4885 16.627C17.9905 17.5645 17.076 18.1955 16.0385 18.313C15.7935 18.338 13.811 18.3485 13.742 18.323C13.704 18.308 13.701 17.743 13.701 12.1715ZM17.306 12.3785C17.2389 12.1856 17.1255 12.0121 16.9759 11.8732C16.8262 11.7343 16.6448 11.6341 16.4475 11.5815C15.809 11.4155 15.1445 11.7835 14.9525 12.4095C14.889 12.6085 14.8865 12.9355 14.9425 13.1295C15.129 13.763 15.8085 14.149 16.4475 13.983C16.841 13.878 17.1475 13.5945 17.303 13.191C17.3875 12.971 17.3905 12.619 17.306 12.3785Z" fill="white"/>
</g>
<defs>
<clipPath id="clip0_284_4198">
<rect width="24" height="24" fill="white" transform="translate(0.5)"/>
</clipPath>
</defs>
</svg>
