<svg xmlns="http://www.w3.org/2000/svg" enable-background="new 0 0 25 25" viewBox="0 0 25 25" id="playstation"><path fill="#583689" d="M1,16c-0.553,0-1-0.447-1-1v-2c0-0.553,0.447-1,1-1h5.5C6.775,12,7,11.775,7,11.5S6.775,11,6.5,11H1c-0.553,0-1-0.447-1-1s0.447-1,1-1h5.5C7.879,9,9,10.121,9,11.5S7.879,14,6.5,14H2v1C2,15.553,1.553,16,1,16z"></path><path fill="#583689" d="M10.78,16H8c-0.553,0-1-0.447-1-1s0.447-1,1-1h2.78c0.121,0,0.22-0.099,0.22-0.22V11.22C11,9.996,11.996,9,13.22,9H16c0.553,0,1,0.447,1,1s-0.447,1-1,1h-2.78C13.099,11,13,11.099,13,11.22v2.561C13,15.004,12.004,16,10.78,16z"></path><path fill="#DE002A" d="M23,16c-0.553,0-1-0.447-1-1h-5.979c-0.453,0-0.85-0.305-0.967-0.743c-0.116-0.438,0.076-0.899,0.47-1.124l6.979-4c0.307-0.18,0.689-0.178,0.998,0.002C23.81,9.313,24,9.644,24,10v3c0.553,0,1,0.447,1,1s-0.447,1-1,1C24,15.553,23.553,16,23,16z M19.777,13H22v-1.274L19.777,13z"></path></svg>