<svg xmlns="http://www.w3.org/2000/svg"  viewBox="0 0 64 64" width="64px" height="64px"><radialGradient id="vu~vkei7XACgL3Cd1Wya3a" cx="36" cy="3842" r="26.875" gradientTransform="translate(0 -3810)" gradientUnits="userSpaceOnUse"><stop offset="0" stop-color="#f4e9c3"/><stop offset=".219" stop-color="#f8eecd"/><stop offset=".644" stop-color="#fdf4dc"/><stop offset="1" stop-color="#fff6e1"/></radialGradient><path fill="url(#vu~vkei7XACgL3Cd1Wya3a)" d="M5.5,61L5.5,61C3.015,61,1,58.985,1,56.5l0,0C1,54.015,3.015,52,5.5,52l0,0	c2.485,0,4.5,2.015,4.5,4.5l0,0C10,58.985,7.985,61,5.5,61z"/><radialGradient id="vu~vkei7XACgL3Cd1Wya3b" cx="-1268" cy="778.293" r="30.776" gradientTransform="matrix(-1 0 0 .8936 -1236 -663.982)" gradientUnits="userSpaceOnUse"><stop offset="0" stop-color="#f4e9c3"/><stop offset=".219" stop-color="#f8eecd"/><stop offset=".644" stop-color="#fdf4dc"/><stop offset="1" stop-color="#fff6e1"/></radialGradient><path fill="url(#vu~vkei7XACgL3Cd1Wya3b)" d="M62.83,39.17C63.55,39.9,64,40.9,64,42c0,2.21-1.79,4-4,4h-5.5c-0.96,0-1.84,0.39-2.47,1.03	C51.39,47.66,51,48.54,51,49.5c0,1.93,1.57,3.5,3.5,3.5H55c1.1,0,2.1,0.45,2.83,1.17C58.55,54.9,59,55.9,59,57c0,2.21-1.79,4-4,4	H18.5c-1.24,0-2.36-0.5-3.18-1.32C14.5,58.87,14,57.74,14,56.5c0-2.49,2.02-4.5,4.5-4.5H20c0.83,0,1.58-0.34,2.12-0.88	C22.66,50.58,23,49.83,23,49c0-1.66-1.34-3-3-3H5.5c-1.52,0-2.9-0.62-3.89-1.61C0.62,43.4,0,42.02,0,40.5C0,37.46,2.46,35,5.5,35H13	c1.1,0,1.86-0.45,2.33-1.17C15.8,33.1,16,32.1,16,31c0-2.21,4.21-7,2-7H5c-2.5,0-3.75-0.56-4.38-1.46C0,21.63,0,20.38,0,19	c0-2.76,2.24-5,5-5h8c0.35,0,0.7,0.01,1.02,0.01c0.22,0,0.42,0,0.62-0.01h1.86c0.69,0,1.32-0.28,1.77-0.73	C18.72,12.82,19,12.19,19,11.5c0-1.38-1.12-2.5-2.5-2.5H7.48C5.55,9,3.99,7.43,4,5.5V5.48C4.01,3.56,5.57,2,7.5,2h47	C56.43,2,58,3.57,58,5.5v0.11C58,7.48,56.48,9,54.56,9H40.6c-1.1,0-2.05,0.58-2.57,1.46c-0.27,0.45-0.43,0.98-0.43,1.54	c0,0.83,0.34,1.58,0.88,2.12S39.77,15,40.6,15H59c2.76,0,5,2.24,5,5c0,1.38-0.56,2.63-1.46,3.54C61.63,24.44,60.38,25,59,25	c-2.41,0-2.03,6.09-2,8.74C56.97,36.12,56.59,38,59,38h1C61.1,38,62.1,38.45,62.83,39.17z"/><linearGradient id="vu~vkei7XACgL3Cd1Wya3c" x1="32" x2="32" y1="18.234" y2="45.025" gradientTransform="matrix(1 0 0 -1 0 66)" gradientUnits="userSpaceOnUse"><stop offset="0" stop-color="#155cde"/><stop offset=".278" stop-color="#1f7fe5"/><stop offset=".569" stop-color="#279ceb"/><stop offset=".82" stop-color="#2cafef"/><stop offset="1" stop-color="#2eb5f0"/></linearGradient><path fill="url(#vu~vkei7XACgL3Cd1Wya3c)" d="M59,42c-1.657,0-3-1.343-3-3v-1H44c-1.232,0-2.339-0.754-2.791-1.899 c-0.452-1.146-0.157-2.453,0.744-3.294l15-14c0.873-0.814,2.146-1.034,3.242-0.558C61.291,18.725,62,19.805,62,21v11.171 c1.165,0.412,2,1.522,2,2.829s-0.835,2.418-2,2.829V39C62,40.657,60.657,42,59,42z M51.611,32H56v-4.096L51.611,32z M27,42h-7 c-1.657,0-3-1.343-3-3s1.343-3,3-3h7c0.551,0,1-0.448,1-1V25c0-3.86,3.14-7,7-7h7c1.657,0,3,1.343,3,3s-1.343,3-3,3h-7 c-0.552,0-1,0.449-1,1v10C34,38.859,30.86,42,27,42z M3,42c-1.657,0-3-1.343-3-3v-5c0-2.757,2.243-5,5-5h7.5 c1.378,0,2.5-1.122,2.5-2.5S13.878,24,12.5,24H3c-1.657,0-3-1.343-3-3s1.343-3,3-3h9.5c4.687,0,8.5,3.813,8.5,8.5 S17.187,35,12.5,35H6v4C6,40.657,4.657,42,3,42z"/></svg>