<svg width="25" height="24" viewBox="0 0 25 24" fill="none" xmlns="http://www.w3.org/2000/svg">
<g id="Playstation" clip-path="url(#clip0_284_4212)">
<path id="Vector" d="M16.657 20.1261L13.362 19.0391L10.066 20.2221L13.426 21.2781L16.657 20.1261ZM7.76402 17.2471L11.187 18.3031C8.30802 19.2631 5.52402 19.3591 2.80502 18.6231C1.36502 18.2381 0.56602 17.7261 0.50102 17.0221C0.46902 16.5431 1.11002 15.9991 2.32402 15.4871L5.68302 16.5431L4.82002 16.8631C4.56402 16.9591 4.33902 17.0871 4.18002 17.1821C4.02002 17.3421 4.08302 17.5021 4.33902 17.6631L5.62002 17.8231L6.96402 17.5671L7.76402 17.2471Z" fill="#ECB731"/>
<path id="Vector_2" d="M11.918 19.557L10.067 20.222L13.427 21.278L15.256 20.626L11.918 19.557ZM1.151 16.109C0.704998 16.423 0.481998 16.734 0.500998 17.023C0.565998 17.727 1.365 18.239 2.805 18.624C3.997 18.947 5.202 19.109 6.422 19.109C7.429 19.109 8.446 18.998 9.475 18.775L6.175 17.718L5.62 17.823L4.339 17.663C4.083 17.503 4.02 17.342 4.18 17.182C4.215 17.161 4.253 17.138 4.294 17.115L1.151 16.109Z" fill="#CD9F2B"/>
<path id="Vector_3" d="M11.282 14.56L7.76397 13.504L3.12397 15.167L2.32397 15.487L5.68297 16.543L11.282 14.56ZM17.041 16.287L12.018 18.047L11.186 18.303L7.76297 17.248L13.457 15.2L17.041 16.287ZM19.217 16.927L13.363 19.038L16.658 20.126L22.064 18.207L22.704 17.919L19.217 16.927Z" fill="#5CB39B"/>
<path id="Vector_4" d="M16.511 17.903L13.362 19.039L16.657 20.127L19.881 18.983L16.511 17.903ZM10.92 16.112L7.76397 17.247L11.187 18.302L12.019 18.046L14.38 17.219L10.92 16.112ZM5.40997 14.347L3.12397 15.166L2.32397 15.486L5.68297 16.542L8.80797 15.435L5.40997 14.347Z" fill="#509C87"/>
<path id="Vector_5" d="M9.522 12.928L12.977 13.92L11.282 14.56L7.763 13.504L9.522 12.928ZM13.458 15.199C15.121 14.56 16.721 14.239 18.257 14.207C19.601 14.144 21.04 14.304 22.48 14.783C23.761 15.199 24.464 15.679 24.496 16.287C24.56 16.926 23.984 17.438 22.705 17.919L19.218 16.927L20.402 16.479C20.882 16.319 21.106 16.159 21.042 15.967C20.978 15.808 20.818 15.68 20.466 15.648L19.282 15.583L18.387 15.808L17.043 16.288L13.458 15.199Z" fill="#5175B8"/>
<path id="Vector_6" d="M21.05 16.052C21.031 16.208 20.808 16.344 20.401 16.479L19.217 16.927L22.704 17.919C23.423 17.649 23.919 17.369 24.205 17.062L21.05 16.052ZM16.042 14.448C15.198 14.612 14.337 14.861 13.458 15.199L17.041 16.287L18.385 15.807L19.28 15.582L19.648 15.602L16.042 14.448ZM9.522 12.928L7.763 13.504L11.282 14.56L12.977 13.92L9.522 12.928Z" fill="#4766A0"/>
<path id="Vector_7" d="M9.45898 2.72302V20.063L13.426 21.278V6.78502C13.426 6.40102 13.458 6.14502 13.618 5.98502C13.778 5.76102 13.938 5.72902 14.162 5.82602C14.706 5.98502 14.962 6.46602 14.962 7.26502V13.087C16.177 13.663 17.265 13.727 18.065 13.119C18.897 12.543 19.345 11.52 19.345 9.98402C19.345 8.38402 19.024 7.17002 18.32 6.36802C17.68 5.50502 16.561 4.80102 14.897 4.22602C12.722 3.52202 10.898 3.01102 9.45898 2.72302Z" fill="#CC2229"/>
<path id="Vector_8" d="M9.45898 2.72302V20.063L11.549 20.703V3.22202C10.781 3.01502 10.084 2.84802 9.45898 2.72302Z" fill="#B21E24"/>
</g>
<defs>
<clipPath id="clip0_284_4212">
<rect width="24" height="24" fill="white" transform="translate(0.5)"/>
</clipPath>
</defs>
</svg>
