<svg width="25" height="24" viewBox="0 0 25 24" fill="none" xmlns="http://www.w3.org/2000/svg">
<g id="icon">
<path id="Icon" fill-rule="evenodd" clip-rule="evenodd" d="M14.8851 15.4458C12.2349 17.5685 8.35544 17.4014 5.89866 14.9446C3.26262 12.3086 3.26262 8.0347 5.89866 5.39866C8.5347 2.76262 12.8086 2.76262 15.4446 5.39866C17.9014 7.85544 18.0685 11.7349 15.9458 14.3851L21.1014 19.5408C21.3943 19.8337 21.3943 20.3085 21.1014 20.6014C20.8085 20.8943 20.3337 20.8943 20.0408 20.6014L14.8851 15.4458ZM6.95932 13.8839C4.90907 11.8337 4.90907 8.50957 6.95932 6.45932C9.00957 4.40907 12.3337 4.40907 14.3839 6.45932C16.4327 8.50807 16.4342 11.8288 14.3885 13.8794C14.3869 13.8809 14.3854 13.8824 14.3839 13.8839C14.3824 13.8854 14.3809 13.8869 14.3794 13.8884C12.3288 15.9342 9.00807 15.9327 6.95932 13.8839Z" fill="#E8F1F5"/>
</g>
</svg>
