<svg width="25" height="24" viewBox="0 0 25 24" fill="none" xmlns="http://www.w3.org/2000/svg">
<path id="Icon" d="M13.4969 0.627833C13.0527 -0.209276 11.9473 -0.209279 11.5031 0.627833L8.37494 6.52321C8.15552 6.93674 7.77626 7.21893 7.34397 7.29033L1.48159 8.25862C0.496966 8.42125 0.151585 9.78075 0.918402 10.4755L5.28563 14.4322C5.68989 14.7985 5.87997 15.3762 5.78177 15.9402L4.63937 22.5009C4.45878 23.538 5.45436 24.3438 6.30859 23.8519L11.8288 20.6733C12.2489 20.4314 12.7511 20.4314 13.1712 20.6733L18.6914 23.8519C19.5456 24.3438 20.5412 23.538 20.3606 22.5009L19.2182 15.9402C19.12 15.3762 19.3101 14.7985 19.7144 14.4322L24.0816 10.4755C24.8484 9.78076 24.503 8.42125 23.5184 8.25862L17.656 7.29033C17.2237 7.21893 16.8445 6.93674 16.6251 6.52321L13.4969 0.627833Z" fill="#FDDE2E"/>
</svg>
