<svg width="25" height="26" viewBox="0 0 25 26" fill="none" xmlns="http://www.w3.org/2000/svg">
<g id="Frame 117">
<path id="Icon" d="M11.5031 1.62783L8.37494 7.52321C8.15552 7.93673 7.77626 8.21893 7.34397 8.29033L1.48159 9.25862C0.496966 9.42125 0.151585 10.7808 0.918402 11.4755L5.28563 15.4322C5.68989 15.7985 5.87997 16.3762 5.78177 16.9402L4.63937 23.5009C4.45878 24.538 5.45436 25.3438 6.30859 24.8519L11.8288 21.6733C12.0276 21.5589 12.2448 21.4985 12.463 21.4924C12.7058 21.4856 12.9499 21.5459 13.1712 21.6733L18.6914 24.8519C19.5456 25.3438 20.5412 24.538 20.3606 23.5009L19.2182 16.9402C19.12 16.3762 19.3101 15.7985 19.7144 15.4322L24.0816 11.4755C24.8484 10.7808 24.503 9.42125 23.5184 9.25862L17.656 8.29033C17.2237 8.21893 16.8445 7.93673 16.6251 7.52321L13.4969 1.62783C13.2677 1.19594 12.8626 0.986879 12.463 1.00064C12.0881 1.01355 11.7181 1.22261 11.5031 1.62783Z" stroke="#FDDE2E" stroke-linejoin="round"/>
</g>
</svg>
