<svg width="18" height="16" viewBox="0 0 18 16" fill="none" xmlns="http://www.w3.org/2000/svg">
<path id="Icon" d="M9.74768 0.418556C9.41454 -0.139517 8.58546 -0.13952 8.25232 0.418555L5.9062 4.34881C5.74164 4.62449 5.4572 4.81262 5.13298 4.86022L0.736196 5.50575C-0.00227536 5.61417 -0.261311 6.5205 0.313801 6.98366L3.58922 9.62149C3.89241 9.86567 4.03498 10.2508 3.96132 10.6268L3.10453 15.0006C2.96908 15.692 3.71577 16.2292 4.35644 15.9013L8.49657 13.7822C8.81168 13.6209 9.18832 13.6209 9.50343 13.7822L13.6436 15.9013C14.2842 16.2292 15.0309 15.692 14.8955 15.0006L14.0387 10.6268C13.965 10.2508 14.1076 9.86567 14.4108 9.62149L17.6862 6.98366C18.2613 6.5205 18.0023 5.61417 17.2638 5.50575L12.867 4.86022C12.5428 4.81262 12.2584 4.62449 12.0938 4.34881L9.74768 0.418556Z" fill="#D9D327"/>
</svg>
