<svg width="25" height="24" viewBox="0 0 25 24" fill="none" xmlns="http://www.w3.org/2000/svg">
<g id="Xbox" clip-path="url(#clip0_284_4181)">
<path id="Vector" d="M24.4997 12C24.5012 18.6262 19.1292 23.9993 12.502 24C5.8746 24.0007 0.501284 18.6297 0.50055 12.0036V12.0001C0.499081 5.37292 5.87093 0.000742648 12.4983 1.0478e-07C19.1257 -0.000866196 24.499 5.3702 24.4997 11.9964V12Z" fill="#666666"/>
<path id="Vector_2" d="M24.4997 12C24.5012 18.6262 19.1292 23.9993 12.502 24C5.8746 24.0007 0.501284 18.6297 0.50055 12.0036V12.0001C0.499081 5.37292 5.87093 0.000742648 12.4983 1.0478e-07C19.1257 -0.000866196 24.499 5.3702 24.4997 11.9964V12Z" fill="url(#paint0_radial_284_4181)"/>
<path id="Vector_3" d="M9.45442 6.74438C8.13012 8.3687 2.57948 14.9704 3.0719 19.4342C3.41442 19.8735 3.79218 20.2837 4.19123 20.6718C4.13323 17.2547 8.09793 13.5978 11.1923 10.838L9.45442 6.74438Z" fill="#00A54D"/>
<g id="Group">
<path id="Vector_4" d="M9.45439 6.74426C8.13002 8.36858 2.57943 14.9703 3.07184 19.4341C3.41434 19.8733 3.7921 20.2835 4.19118 20.6716C4.13324 17.2545 8.09784 13.5978 11.1923 10.838L9.45439 6.74426Z" fill="url(#paint1_linear_284_4181)"/>
</g>
<g id="Group_2">
<path id="Vector_5" d="M6.19775 1.79489C5.50548 2.21601 4.86265 2.71072 4.27209 3.25719C6.17555 3.62295 8.08542 5.31762 9.13178 6.72159C10.0434 8.16222 10.5386 9.48407 11.1828 10.8479C11.6185 10.475 12.0621 10.0947 12.5416 9.70516L12.5387 3.78212C11.1205 2.89081 8.77633 1.71784 6.22068 1.79352C6.21439 1.79848 6.20292 1.79129 6.19775 1.79489Z" fill="#02A74D"/>
<path id="Vector_6" d="M6.19775 1.79489C5.50548 2.21601 4.86265 2.71072 4.27209 3.25719C6.17555 3.62295 8.08542 5.31762 9.13178 6.72159C10.0434 8.16222 10.5386 9.48407 11.1828 10.8479C11.6185 10.475 12.0621 10.0947 12.5416 9.70516L12.5387 3.78212C11.1205 2.89081 8.77633 1.71784 6.22068 1.79352C6.21439 1.79848 6.20292 1.79129 6.19775 1.79489Z" fill="url(#paint2_linear_284_4181)"/>
</g>
<g id="Group_3">
<path id="Vector_7" d="M15.5495 6.74854C16.8694 8.37433 22.4015 14.9815 21.911 19.4489C21.5695 19.8885 21.193 20.2992 20.7954 20.6877C20.8533 17.2677 16.9011 13.6077 13.8173 10.8451L15.5495 6.74854Z" fill="#00A54D"/>
<g id="Group_4">
<path id="Vector_8" d="M15.5494 6.74854C16.8693 8.37435 22.4015 14.9815 21.9109 19.4489C21.5695 19.8885 21.193 20.2993 20.7954 20.6877C20.8532 17.2677 16.901 13.6077 13.8173 10.8451L15.5494 6.74854Z" fill="url(#paint3_linear_284_4181)"/>
</g>
<g id="Group_5">
<path id="Vector_9" d="M18.795 1.79498C19.4854 2.21659 20.1258 2.71159 20.715 3.25828C18.818 3.62436 16.9142 5.32059 15.8714 6.72649C14.9623 8.16847 14.4687 9.49144 13.8272 10.8562C13.3929 10.4828 12.9508 10.1025 12.4729 9.7126L12.4757 3.78415C13.8893 2.89209 16.2259 1.7185 18.773 1.79399C18.7788 1.79858 18.79 1.79139 18.795 1.79498Z" fill="#02A74D"/>
<path id="Vector_10" d="M18.795 1.79498C19.4854 2.21659 20.1258 2.71159 20.715 3.25828C18.818 3.62436 16.9142 5.32059 15.8714 6.72649C14.9623 8.16847 14.4687 9.49144 13.8272 10.8562C13.3929 10.4828 12.9508 10.1025 12.4729 9.7126L12.4757 3.78415C13.8893 2.89209 16.2259 1.7185 18.773 1.79399C18.7788 1.79858 18.79 1.79139 18.795 1.79498Z" fill="url(#paint4_linear_284_4181)"/>
</g>
</g>
</g>
<defs>
<radialGradient id="paint0_radial_284_4181" cx="0" cy="0" r="1" gradientUnits="userSpaceOnUse" gradientTransform="translate(12.2281 10.6978) rotate(90) scale(22.4913 19.7475)">
<stop offset="0.259" stop-color="white"/>
<stop offset="1" stop-color="white" stop-opacity="0"/>
</radialGradient>
<linearGradient id="paint1_linear_284_4181" x1="8.12983" y1="15.3194" x2="-8.42636" y2="-4.40659" gradientUnits="userSpaceOnUse">
<stop stop-color="#97CA43"/>
<stop offset="1" stop-color="#97CA43" stop-opacity="0"/>
</linearGradient>
<linearGradient id="paint2_linear_284_4181" x1="8.0005" y1="7.30223" x2="23.0476" y2="-26.6116" gradientUnits="userSpaceOnUse">
<stop stop-color="#97CA43"/>
<stop offset="1" stop-color="#97CA43" stop-opacity="0"/>
</linearGradient>
<linearGradient id="paint3_linear_284_4181" x1="18.1637" y1="13.7755" x2="1.51424" y2="-5.73164" gradientUnits="userSpaceOnUse">
<stop stop-color="#97CA43"/>
<stop offset="1" stop-color="#97CA43" stop-opacity="0"/>
</linearGradient>
<linearGradient id="paint4_linear_284_4181" x1="15.9619" y1="5.44983" x2="29.008" y2="-15.7731" gradientUnits="userSpaceOnUse">
<stop stop-color="#97CA43"/>
<stop offset="1" stop-color="#97CA43" stop-opacity="0"/>
</linearGradient>
<clipPath id="clip0_284_4181">
<rect width="24" height="24" fill="white" transform="translate(0.5)"/>
</clipPath>
</defs>
</svg>
